<svg id="visual" viewBox="0 0 900 600" width="900" height="600" xmlns="http://www.w3.org/2000/svg" xmlns:xlink="http://www.w3.org/1999/xlink" version="1.1"><path d="M0 124L13.7 122.8C27.3 121.7 54.7 119.3 82 117.2C109.3 115 136.7 113 163.8 115.5C191 118 218 125 245.2 120C272.3 115 299.7 98 327 90C354.3 82 381.7 83 409 88.5C436.3 94 463.7 104 491 111.2C518.3 118.3 545.7 122.7 573 119.2C600.3 115.7 627.7 104.3 654.8 96.8C682 89.3 709 85.7 736.2 89C763.3 92.3 790.7 102.7 818 107.7C845.3 112.7 872.7 112.3 886.3 112.2L900 112L900 0L886.3 0C872.7 0 845.3 0 818 0C790.7 0 763.3 0 736.2 0C709 0 682 0 654.8 0C627.7 0 600.3 0 573 0C545.7 0 518.3 0 491 0C463.7 0 436.3 0 409 0C381.7 0 354.3 0 327 0C299.7 0 272.3 0 245.2 0C218 0 191 0 163.8 0C136.7 0 109.3 0 82 0C54.7 0 27.3 0 13.7 0L0 0Z" fill="#4458dc"></path><path d="M0 94L13.7 91.7C27.3 89.3 54.7 84.7 82 87.2C109.3 89.7 136.7 99.3 163.8 99.5C191 99.7 218 90.3 245.2 85.3C272.3 80.3 299.7 79.7 327 76.8C354.3 74 381.7 69 409 70.8C436.3 72.7 463.7 81.3 491 88.8C518.3 96.3 545.7 102.7 573 103.3C600.3 104 627.7 99 654.8 95.7C682 92.3 709 90.7 736.2 87.7C763.3 84.7 790.7 80.3 818 83C845.3 85.7 872.7 95.3 886.3 100.2L900 105L900 0L886.3 0C872.7 0 845.3 0 818 0C790.7 0 763.3 0 736.2 0C709 0 682 0 654.8 0C627.7 0 600.3 0 573 0C545.7 0 518.3 0 491 0C463.7 0 436.3 0 409 0C381.7 0 354.3 0 327 0C299.7 0 272.3 0 245.2 0C218 0 191 0 163.8 0C136.7 0 109.3 0 82 0C54.7 0 27.3 0 13.7 0L0 0Z" fill="#5557e1"></path><path d="M0 65L13.7 63.7C27.3 62.3 54.7 59.7 82 57.3C109.3 55 136.7 53 163.8 57.8C191 62.7 218 74.3 245.2 77.8C272.3 81.3 299.7 76.7 327 70.7C354.3 64.7 381.7 57.3 409 56.7C436.3 56 463.7 62 491 63.2C518.3 64.3 545.7 60.7 573 59.5C600.3 58.3 627.7 59.7 654.8 60.7C682 61.7 709 62.3 736.2 64.8C763.3 67.3 790.7 71.7 818 71.5C845.3 71.3 872.7 66.7 886.3 64.3L900 62L900 0L886.3 0C872.7 0 845.3 0 818 0C790.7 0 763.3 0 736.2 0C709 0 682 0 654.8 0C627.7 0 600.3 0 573 0C545.7 0 518.3 0 491 0C463.7 0 436.3 0 409 0C381.7 0 354.3 0 327 0C299.7 0 272.3 0 245.2 0C218 0 191 0 163.8 0C136.7 0 109.3 0 82 0C54.7 0 27.3 0 13.7 0L0 0Z" fill="#6655e6"></path><path d="M0 52L13.7 52.3C27.3 52.7 54.7 53.3 82 51.2C109.3 49 136.7 44 163.8 42C191 40 218 41 245.2 41.2C272.3 41.3 299.7 40.7 327 40C354.3 39.3 381.7 38.7 409 41.5C436.3 44.3 463.7 50.7 491 53.8C518.3 57 545.7 57 573 56.7C600.3 56.3 627.7 55.7 654.8 52C682 48.3 709 41.7 736.2 39.8C763.3 38 790.7 41 818 44.2C845.3 47.3 872.7 50.7 886.3 52.3L900 54L900 0L886.3 0C872.7 0 845.3 0 818 0C790.7 0 763.3 0 736.2 0C709 0 682 0 654.8 0C627.7 0 600.3 0 573 0C545.7 0 518.3 0 491 0C463.7 0 436.3 0 409 0C381.7 0 354.3 0 327 0C299.7 0 272.3 0 245.2 0C218 0 191 0 163.8 0C136.7 0 109.3 0 82 0C54.7 0 27.3 0 13.7 0L0 0Z" fill="#7652ea"></path><path d="M0 33L13.7 33.3C27.3 33.7 54.7 34.3 82 33.7C109.3 33 136.7 31 163.8 31.2C191 31.3 218 33.7 245.2 35.2C272.3 36.7 299.7 37.3 327 35.8C354.3 34.3 381.7 30.7 409 30.8C436.3 31 463.7 35 491 34C518.3 33 545.7 27 573 23.5C600.3 20 627.7 19 654.8 20.5C682 22 709 26 736.2 27.3C763.3 28.7 790.7 27.3 818 26.3C845.3 25.3 872.7 24.7 886.3 24.3L900 24L900 0L886.3 0C872.7 0 845.3 0 818 0C790.7 0 763.3 0 736.2 0C709 0 682 0 654.8 0C627.7 0 600.3 0 573 0C545.7 0 518.3 0 491 0C463.7 0 436.3 0 409 0C381.7 0 354.3 0 327 0C299.7 0 272.3 0 245.2 0C218 0 191 0 163.8 0C136.7 0 109.3 0 82 0C54.7 0 27.3 0 13.7 0L0 0Z" fill="#854fee"></path></svg>