<svg width="194" height="65" viewBox="0 0 194 65" fill="none" xmlns="http://www.w3.org/2000/svg">
<g id="logo">
<path id="SARANYA DEVI" d="M59.5977 40.6875C59.5977 40.2891 59.5508 39.9375 59.457 39.6328C59.3633 39.3203 59.1992 39.0391 58.9648 38.7891C58.7305 38.5391 58.4023 38.3008 57.9805 38.0742C57.5586 37.8477 57.0234 37.6172 56.375 37.3828C55.6719 37.1328 55.0352 36.8555 54.4648 36.5508C53.8945 36.2383 53.4062 35.8828 53 35.4844C52.6016 35.0859 52.293 34.6289 52.0742 34.1133C51.8555 33.5977 51.7461 33.0078 51.7461 32.3438C51.7461 31.6797 51.8594 31.0664 52.0859 30.5039C52.3203 29.9414 52.6484 29.4531 53.0703 29.0391C53.5 28.6172 54.0156 28.2891 54.6172 28.0547C55.2188 27.8203 55.8906 27.7031 56.6328 27.7031C57.7422 27.7031 58.6758 27.9492 59.4336 28.4414C60.1992 28.9258 60.7773 29.5625 61.168 30.3516C61.5586 31.1328 61.7539 31.9688 61.7539 32.8594H59.5977C59.5977 32.2188 59.4922 31.6523 59.2812 31.1602C59.0781 30.6602 58.7578 30.2695 58.3203 29.9883C57.8906 29.6992 57.3281 29.5547 56.6328 29.5547C56.0078 29.5547 55.4922 29.6758 55.0859 29.918C54.6875 30.1602 54.3906 30.4883 54.1953 30.9023C54.0078 31.3164 53.9141 31.7891 53.9141 32.3203C53.9141 32.6797 53.9766 33.0078 54.1016 33.3047C54.2266 33.5938 54.418 33.8633 54.6758 34.1133C54.9414 34.3633 55.2695 34.5938 55.6602 34.8047C56.0586 35.0156 56.5273 35.2188 57.0664 35.4141C57.9023 35.6875 58.6172 35.9922 59.2109 36.3281C59.8047 36.6641 60.2891 37.043 60.6641 37.4648C61.0391 37.8789 61.3125 38.3516 61.4844 38.8828C61.6641 39.4062 61.7539 40 61.7539 40.6641C61.7539 41.3594 61.6367 41.9883 61.4023 42.5508C61.1758 43.1133 60.8438 43.5938 60.4062 43.9922C59.9688 44.3906 59.4414 44.6992 58.8242 44.918C58.207 45.1289 57.5117 45.2344 56.7383 45.2344C56.0664 45.2344 55.4062 45.125 54.7578 44.9062C54.1172 44.6875 53.5352 44.3594 53.0117 43.9219C52.4883 43.4844 52.0703 42.9453 51.7578 42.3047C51.4453 41.6562 51.2891 40.9062 51.2891 40.0547H53.4453C53.4453 40.6406 53.5312 41.1445 53.7031 41.5664C53.875 41.9805 54.1133 42.3242 54.418 42.5977C54.7227 42.8711 55.0703 43.0742 55.4609 43.207C55.8594 43.332 56.2852 43.3945 56.7383 43.3945C57.3633 43.3945 57.8867 43.2852 58.3086 43.0664C58.7383 42.8477 59.0586 42.5352 59.2695 42.1289C59.4883 41.7227 59.5977 41.2422 59.5977 40.6875ZM70.1094 29.4492L65.4453 45H63.2422L68.7383 27.9375H70.1211L70.1094 29.4492ZM73.8828 45L69.2188 29.4492L69.1953 27.9375H70.5898L76.0859 45H73.8828ZM73.8828 38.6836V40.5352H65.6562V38.6836H73.8828ZM78.4414 27.9375H83.2109C84.3203 27.9375 85.25 28.1328 86 28.5234C86.7578 28.9141 87.3281 29.4922 87.7109 30.2578C88.1016 31.0156 88.2969 31.9492 88.2969 33.0586C88.2969 33.8398 88.168 34.5547 87.9102 35.2031C87.6523 35.8438 87.2773 36.3906 86.7852 36.8438C86.293 37.2891 85.6953 37.6211 84.9922 37.8398L84.4062 38.0859H80.1523L80.1289 36.2461H83.1875C83.8438 36.2461 84.3906 36.1055 84.8281 35.8242C85.2656 35.5352 85.5938 35.1484 85.8125 34.6641C86.0312 34.1797 86.1406 33.6445 86.1406 33.0586C86.1406 32.4023 86.043 31.8281 85.8477 31.3359C85.6523 30.8438 85.3398 30.4648 84.9102 30.1992C84.4883 29.9258 83.9219 29.7891 83.2109 29.7891H80.5977V45H78.4414V27.9375ZM86.6328 45L83.2344 37.2656L85.4727 37.2539L88.9414 44.8594V45H86.6328ZM96.7109 29.4492L92.0469 45H89.8438L95.3398 27.9375H96.7227L96.7109 29.4492ZM100.484 45L95.8203 29.4492L95.7969 27.9375H97.1914L102.688 45H100.484ZM100.484 38.6836V40.5352H92.2578V38.6836H100.484ZM116.188 27.9375V45H114.02L107.188 31.8398V45H105.031V27.9375H107.188L114.055 41.1328V27.9375H116.188ZM120.547 27.9375L124.027 36.5039L127.52 27.9375H129.957L125.105 38.625V45H122.949V38.625L118.098 27.9375H120.547ZM136.625 29.4492L131.961 45H129.758L135.254 27.9375H136.637L136.625 29.4492ZM140.398 45L135.734 29.4492L135.711 27.9375H137.105L142.602 45H140.398ZM140.398 38.6836V40.5352H132.172V38.6836H140.398ZM154.32 45H151.414L151.438 43.1602H154.32C155.344 43.1602 156.176 42.9648 156.816 42.5742C157.457 42.1758 157.93 41.5898 158.234 40.8164C158.539 40.0352 158.691 39.0703 158.691 37.9219V35.0039C158.691 34.0977 158.605 33.3164 158.434 32.6602C158.262 32.0039 158.004 31.4648 157.66 31.043C157.316 30.6211 156.883 30.3086 156.359 30.1055C155.836 29.8945 155.223 29.7891 154.52 29.7891H151.355V27.9375H154.52C155.48 27.9375 156.348 28.0898 157.121 28.3945C157.895 28.6914 158.559 29.1406 159.113 29.7422C159.668 30.3359 160.09 31.0742 160.379 31.957C160.676 32.8398 160.824 33.8633 160.824 35.0273V37.9219C160.824 39.0859 160.676 40.1094 160.379 40.9922C160.09 41.875 159.664 42.6133 159.102 43.207C158.539 43.8008 157.855 44.25 157.051 44.5547C156.254 44.8516 155.344 45 154.32 45ZM152.609 27.9375V45H150.453V27.9375H152.609ZM173.34 43.1602V45H165.934V43.1602H173.34ZM166.32 27.9375V45H164.164V27.9375H166.32ZM172.344 35.2734V37.1133H165.934V35.2734H172.344ZM173.223 27.9375V29.7891H165.934V27.9375H173.223ZM180.781 42.4102L184.883 27.9375H187.227L181.93 45H180.277L180.781 42.4102ZM177.102 27.9375L181.168 42.4102L181.707 45H180.055L174.758 27.9375H177.102ZM191.797 27.9375V45H189.641V27.9375H191.797Z" fill="#309EAC"/>
<path id="&#60;" d="M4.97656 28.25L18.1719 34.8125V39.4062L2.14062 30.5234V27.8281L4.97656 28.25ZM18.1719 22.8594L5 29.5156L2.14062 29.8438V27.125L18.1719 18.2656V22.8594Z" fill="#309EAC"/>
<path id="&#60;_2" d="M35.0234 36.75L21.8281 30.1875L21.8281 25.5937L37.8594 34.4766L37.8594 37.1719L35.0234 36.75ZM21.8281 42.1406L35 35.4844L37.8594 35.1562L37.8594 37.875L21.8281 46.7344L21.8281 42.1406Z" fill="#309EAC"/>
<path id="/" d="M27.2891 13.875L15.3359 50.9297H11.8438L23.8203 13.875H27.2891Z" fill="white"/>
</g>
</svg>
