<svg id="visual" viewBox="0 0 960 540" width="960" height="540" xmlns="http://www.w3.org/2000/svg" xmlns:xlink="http://www.w3.org/1999/xlink" version="1.1"><path d="M0 77L107 77L107 39L213 39L213 44L320 44L320 28L427 28L427 33L533 33L533 77L640 77L640 28L747 28L747 33L853 33L853 60L960 60L960 28L960 0L960 0L853 0L853 0L747 0L747 0L640 0L640 0L533 0L533 0L427 0L427 0L320 0L320 0L213 0L213 0L107 0L107 0L0 0Z" fill="#4458dc"></path><path d="M0 136L107 136L107 163L213 163L213 152L320 152L320 131L427 131L427 87L533 87L533 190L640 190L640 158L747 158L747 98L853 98L853 168L960 168L960 71L960 26L960 58L853 58L853 31L747 31L747 26L640 26L640 75L533 75L533 31L427 31L427 26L320 26L320 42L213 42L213 37L107 37L107 75L0 75Z" fill="#5257e0"></path><path d="M0 233L107 233L107 309L213 309L213 222L320 222L320 282L427 282L427 233L533 233L533 298L640 298L640 368L747 368L747 239L853 239L853 255L960 255L960 152L960 69L960 166L853 166L853 96L747 96L747 156L640 156L640 188L533 188L533 85L427 85L427 129L320 129L320 150L213 150L213 161L107 161L107 134L0 134Z" fill="#5f56e4"></path><path d="M0 417L107 417L107 444L213 444L213 438L320 438L320 417L427 417L427 444L533 444L533 449L640 449L640 465L747 465L747 363L853 363L853 455L960 455L960 390L960 150L960 253L853 253L853 237L747 237L747 366L640 366L640 296L533 296L533 231L427 231L427 280L320 280L320 220L213 220L213 307L107 307L107 231L0 231Z" fill="#6c54e8"></path><path d="M0 514L107 514L107 482L213 482L213 492L320 492L320 487L427 487L427 509L533 509L533 492L640 492L640 514L747 514L747 460L853 460L853 492L960 492L960 482L960 388L960 453L853 453L853 361L747 361L747 463L640 463L640 447L533 447L533 442L427 442L427 415L320 415L320 436L213 436L213 442L107 442L107 415L0 415Z" fill="#7952eb"></path><path d="M0 541L107 541L107 541L213 541L213 541L320 541L320 541L427 541L427 541L533 541L533 541L640 541L640 541L747 541L747 541L853 541L853 541L960 541L960 541L960 480L960 490L853 490L853 458L747 458L747 512L640 512L640 490L533 490L533 507L427 507L427 485L320 485L320 490L213 490L213 480L107 480L107 512L0 512Z" fill="#854fee"></path></svg>