<svg xmlns="http://www.w3.org/2000/svg" version="1.1" xmlns:xlink="http://www.w3.org/1999/xlink" xmlns:svgjs="http://svgjs.com/svgjs" width="1440" height="300" preserveAspectRatio="none" viewBox="0 0 1440 300"><g mask="url(&quot;#SvgjsMask1021&quot;)" fill="none"><path d="M -217.2311930203923,213 C -121.23,177.8 70.77,34.4 262.7688069796077,37 C 454.77,39.6 550.77,215.8 742.7688069796077,226 C 934.77,236.2 1030.77,97.8 1222.7688069796077,88 C 1414.77,78.2 1659.32,175.6 1702.7688069796077,177 C 1746.22,178.4 1492.55,111.4 1440,95" stroke="rgba(133, 79, 238, 1)" stroke-width="2"></path><path d="M -927.1024384209308,84 C -831.1,118.6 -639.1,267.2 -447.10243842093075,257 C -255.1,246.8 -159.1,41 32.89756157906925,33 C 224.9,25 320.9,210.8 512.8975615790692,217 C 704.9,223.2 807.48,70 992.8975615790692,64 C 1178.32,58 1350.58,162.4 1440,187" stroke="rgba(133, 79, 238, 1)" stroke-width="2"></path><path d="M -358.17042654471686,127 C -262.17,132.8 -70.17,171.8 121.82957345528311,156 C 313.83,140.2 409.83,28.8 601.8295734552831,48 C 793.83,67.2 889.83,248.2 1081.829573455283,252 C 1273.83,255.8 1490.2,71.8 1561.829573455283,67 C 1633.46,62.2 1464.37,195.8 1440,228" stroke="rgba(133, 79, 238, 1)" stroke-width="2"></path><path d="M -31.89144343376904,249 C 64.11,216.8 256.11,95.2 448.10855656623096,88 C 640.11,80.8 736.11,212 928.108556566231,213 C 1120.11,214 1216.11,103.2 1408.108556566231,93 C 1600.11,82.8 1881.73,156.8 1888.108556566231,162 C 1894.49,167.2 1529.62,127.6 1440,119" stroke="rgba(133, 79, 238, 1)" stroke-width="2"></path></g><defs><mask id="SvgjsMask1021"><rect width="1440" height="300" fill="#ffffff"></rect></mask></defs></svg>